<svg id="login" xmlns="http://www.w3.org/2000/svg" width="99.547" height="99.547" viewBox="0 0 99.547 99.547">
  <g id="Group_121" data-name="Group 121">
    <g id="Group_120" data-name="Group 120">
      <path id="Path_33" data-name="Path 33" d="M228.735,0H178.962a8.3,8.3,0,0,0-8.3,8.3V22.813a2.074,2.074,0,0,0,2.074,2.074h4.148a2.074,2.074,0,0,0,2.074-2.074V8.3h49.774V91.252H178.962V76.734a2.074,2.074,0,0,0-2.074-2.074H172.74a2.074,2.074,0,0,0-2.074,2.074V91.252a8.3,8.3,0,0,0,8.3,8.3h49.774a8.3,8.3,0,0,0,8.3-8.3V8.3A8.3,8.3,0,0,0,228.735,0Z" transform="translate(-137.484)" fill="#fff"/>
      <path id="Path_34" data-name="Path 34" d="M46.312,170.005a2.072,2.072,0,0,0-.687,1.541v4.148a2.071,2.071,0,0,0,1.239,1.9,2.044,2.044,0,0,0,.834.176,2.081,2.081,0,0,0,1.4-.545l24.887-22.813a2.075,2.075,0,0,0,0-3.058L49.1,128.54a2.075,2.075,0,0,0-3.475,1.529v4.148a2.072,2.072,0,0,0,.687,1.541l14.417,12.976H2.074A2.073,2.073,0,0,0,0,150.808v4.148a2.073,2.073,0,0,0,2.074,2.074H60.729Z" transform="translate(0 -103.108)" fill="#fff"/>
    </g>
  </g>
</svg>
