<svg xmlns="http://www.w3.org/2000/svg" width="113.266" height="99.55" viewBox="0 0 113.266 99.55">
  <g id="shopping-cart" transform="translate(0 0)">
    <path id="Path_35" data-name="Path 35" d="M36.493,62.651H96.674a3.3,3.3,0,0,0,3.19-2.272l13.273-43.855a2.993,2.993,0,0,0-.541-2.747,3.39,3.39,0,0,0-2.649-1.246H28.84L26.468,2.453A3.283,3.283,0,0,0,23.228,0H3.318A3.229,3.229,0,0,0,0,3.133,3.229,3.229,0,0,0,3.318,6.265H20.567c.42,1.786,11.351,48.223,11.981,50.9a9.414,9.414,0,0,0-6,8.623c0,5.182,4.466,9.4,9.955,9.4H96.674a3.138,3.138,0,1,0,0-6.265H36.5a3.137,3.137,0,1,1-.009-6.264ZM105.548,18.8,94.17,56.385H39.163L30.314,18.8Zm0,0" transform="translate(0)" fill="#fff"/>
    <path id="Path_36" data-name="Path 36" d="M150,372.185A12.185,12.185,0,1,0,162.185,360,12.2,12.2,0,0,0,150,372.185Zm12.185-4.062a4.062,4.062,0,1,1-4.062,4.062A4.067,4.067,0,0,1,162.185,368.123Zm0,0" transform="translate(-118.402 -284.82)" fill="#fff"/>
    <path id="Path_37" data-name="Path 37" d="M362,372.185A12.185,12.185,0,1,0,374.185,360,12.2,12.2,0,0,0,362,372.185Zm12.185-4.062a4.062,4.062,0,1,1-4.062,4.062A4.067,4.067,0,0,1,374.185,368.123Zm0,0" transform="translate(-289.351 -284.82)" fill="#fff"/>
  </g>
</svg>
